<?xml version="1.0" encoding="UTF-8" standalone="no"?>
<!DOCTYPE svg PUBLIC "-//W3C//DTD SVG 1.1//EN" "http://www.w3.org/Graphics/SVG/1.1/DTD/svg11.dtd">
<svg width="100%" height="100%" viewBox="0 0 1024 1024" version="1.1" xmlns="http://www.w3.org/2000/svg" xmlns:xlink="http://www.w3.org/1999/xlink" xml:space="preserve" xmlns:serif="http://www.serif.com/" style="fill-rule:evenodd;clip-rule:evenodd;stroke-linejoin:round;stroke-miterlimit:2;">
    <g transform="matrix(1,0,0,1,-1074,-2670)">
        <g id="SpinTrace2-AppIcon" serif:id="SpinTrace2 AppIcon" transform="matrix(1,0,0,1,0,2670)">
            <rect x="1074" y="0" width="1024" height="1024" style="fill:none;"/>
            <rect x="1074" y="0" width="1024" height="1024" style="fill:rgb(255,0,255);"/>
            <path d="M1458.78,739.209C1496.81,760.834 1540.78,773.189 1587.62,773.189C1604.7,773.189 1621.4,771.546 1637.58,768.408L1739.08,859.946C1737.97,860.142 1736.87,860.465 1735.81,860.919C1733.73,861.803 1731.65,862.667 1729.56,863.512C1724.39,865.593 1720.8,870.367 1720.24,875.91C1718.98,888.3 1716.74,910.378 1715.43,923.25C1714.81,929.405 1710.47,934.546 1704.5,936.195C1702.5,936.742 1700.5,937.279 1698.49,937.802C1692.5,939.356 1686.17,937.075 1682.56,932.057C1674.99,921.565 1662.01,903.565 1654.72,893.462C1651.47,888.943 1645.97,886.602 1640.45,887.384C1638.22,887.701 1635.98,887.996 1633.74,888.27C1628.21,888.943 1623.51,892.625 1621.53,897.834C1617.11,909.476 1609.23,930.222 1604.63,942.317C1602.44,948.101 1596.92,951.944 1590.73,951.993C1588.65,952.004 1586.58,952.004 1584.51,951.989C1578.32,951.94 1572.8,948.099 1570.6,942.316C1566.01,930.222 1558.13,909.476 1553.71,897.833C1551.73,892.623 1547.03,888.94 1541.5,888.268C1539.26,887.996 1537.02,887.701 1534.78,887.387C1529.27,886.605 1523.77,888.945 1520.51,893.464C1513.23,903.565 1500.25,921.565 1492.68,932.059C1489.06,937.078 1482.74,939.36 1476.75,937.806C1474.74,937.279 1472.73,936.742 1470.73,936.191C1464.77,934.543 1460.43,929.404 1459.81,923.25C1458.5,910.378 1456.26,888.3 1455,875.909C1454.44,870.365 1450.85,865.59 1445.68,863.509C1443.59,862.667 1441.5,861.803 1439.43,860.921C1434.3,858.738 1428.39,859.576 1424.07,863.098C1414.42,870.969 1397.22,884.996 1387.2,893.174C1382.4,897.086 1375.7,897.652 1370.32,894.601C1368.51,893.573 1366.72,892.536 1364.93,891.485C1359.6,888.35 1356.73,882.263 1357.72,876.157C1359.79,863.386 1363.34,841.48 1365.34,829.186C1366.23,823.686 1364,818.144 1359.54,814.796C1357.74,813.441 1355.95,812.067 1354.17,810.677C1349.78,807.242 1343.85,806.521 1338.77,808.806C1327.41,813.909 1307.17,823.009 1295.37,828.313C1289.73,830.851 1283.11,829.663 1278.7,825.323C1277.22,823.863 1275.75,822.396 1274.3,820.918C1269.96,816.51 1268.77,809.89 1271.31,804.248C1276.61,792.447 1285.71,772.207 1290.82,760.847C1293.1,755.765 1292.38,749.835 1288.94,745.448C1287.55,743.672 1286.18,741.881 1284.82,740.079C1281.47,735.625 1275.93,733.395 1270.43,734.286C1258.14,736.276 1236.23,739.826 1223.46,741.896C1217.35,742.886 1211.27,740.026 1208.13,734.692C1207.08,732.9 1206.04,731.103 1205.02,729.299C1201.97,723.918 1202.54,717.216 1206.44,712.423C1214.62,702.396 1228.65,685.2 1236.52,675.55C1240.04,671.232 1240.88,665.317 1238.7,660.19C1237.81,658.115 1236.95,656.03 1236.11,653.937C1234.03,648.769 1229.25,645.181 1223.71,644.618C1211.32,643.358 1189.24,641.118 1176.37,639.812C1170.21,639.188 1165.07,634.849 1163.42,628.885C1162.88,626.884 1162.34,624.879 1161.82,622.871C1160.26,616.883 1162.54,610.556 1167.56,606.939C1178.05,599.37 1196.05,586.391 1206.15,579.107C1210.67,575.847 1213.02,570.351 1212.23,564.834C1211.92,562.6 1211.62,560.363 1211.35,558.123C1210.67,552.592 1206.99,547.89 1201.78,545.913C1190.14,541.488 1169.4,533.61 1157.3,529.018C1151.52,526.822 1147.67,521.3 1147.62,515.113C1147.61,513.038 1147.61,510.962 1147.63,508.887C1147.68,502.702 1151.52,497.181 1157.3,494.985C1169.4,490.39 1190.14,482.512 1201.79,478.09C1206.99,476.112 1210.68,471.409 1211.35,465.877C1211.62,463.637 1211.92,461.4 1212.23,459.166C1213.01,453.649 1210.67,448.154 1206.15,444.896C1196.05,437.609 1178.05,424.63 1167.56,417.063C1162.54,413.445 1160.26,407.117 1161.81,401.128C1162.34,399.121 1162.88,397.116 1163.43,395.116C1165.08,389.154 1170.21,384.815 1176.37,384.191C1189.24,382.882 1211.32,380.642 1223.71,379.385C1229.25,378.822 1234.03,375.233 1236.11,370.064C1236.95,367.97 1237.81,365.885 1238.7,363.809C1240.88,358.683 1240.04,352.769 1236.52,348.452C1228.65,338.8 1214.62,321.604 1206.44,311.579C1202.53,306.785 1201.96,300.082 1205.02,294.7C1206.04,292.897 1207.08,291.1 1208.13,289.31C1211.27,283.977 1217.36,281.117 1223.46,282.106C1236.23,284.174 1258.14,287.724 1270.43,289.717C1275.93,290.608 1281.47,288.377 1284.82,283.923C1286.18,282.119 1287.55,280.328 1288.94,278.551C1292.38,274.165 1293.1,268.236 1290.81,263.154C1285.71,251.793 1276.61,231.553 1271.3,219.753C1268.77,214.11 1269.95,207.489 1274.3,203.079C1275.75,201.604 1277.22,200.137 1278.7,198.68C1283.11,194.34 1289.73,193.153 1295.37,195.689C1307.17,200.991 1327.41,210.091 1338.77,215.197C1343.85,217.482 1349.78,216.761 1354.17,213.325C1355.95,211.933 1357.74,210.559 1359.54,209.202C1363.99,205.854 1366.22,200.314 1365.33,194.814C1363.34,182.52 1359.79,160.614 1357.72,147.843C1356.73,141.736 1359.59,135.647 1364.92,132.512C1366.72,131.464 1368.51,130.427 1370.32,129.402C1375.7,126.351 1382.4,126.918 1387.19,130.828C1397.22,139.004 1414.42,153.031 1424.07,160.904C1428.39,164.426 1434.3,165.265 1439.43,163.081C1441.5,162.197 1443.59,161.333 1445.68,160.488C1450.85,158.407 1454.44,153.633 1455,148.09C1456.26,135.7 1458.5,113.622 1459.81,100.75C1460.43,94.595 1464.77,89.454 1470.73,87.805C1472.73,87.258 1474.74,86.721 1476.75,86.198C1482.73,84.644 1489.06,86.925 1492.68,91.943C1500.25,102.435 1513.23,120.435 1520.51,130.538C1523.77,135.057 1529.27,137.398 1534.78,136.616C1537.02,136.299 1539.26,136.004 1541.5,135.73C1547.03,135.057 1551.73,131.375 1553.7,126.166C1558.13,114.524 1566.01,93.778 1570.6,81.683C1572.8,75.899 1578.32,72.056 1584.51,72.007C1586.58,71.996 1588.65,71.996 1590.73,72.011C1596.92,72.06 1602.44,75.901 1604.63,81.684C1609.23,93.778 1617.11,114.524 1621.53,126.167C1623.51,131.377 1628.21,135.06 1633.74,135.732C1635.98,136.004 1638.22,136.299 1640.45,136.613C1645.97,137.395 1651.46,135.055 1654.72,130.536C1662.01,120.435 1674.99,102.435 1682.55,91.941C1686.17,86.922 1692.5,84.64 1698.49,86.194C1700.5,86.721 1702.5,87.258 1704.5,87.809C1710.46,89.457 1714.8,94.596 1715.43,100.75C1716.74,113.622 1718.98,135.7 1720.23,148.091C1720.8,153.635 1724.38,158.41 1729.55,160.491C1731.65,161.333 1733.73,162.197 1735.81,163.079C1740.93,165.262 1746.85,164.424 1751.16,160.902C1760.82,153.031 1778.01,139.004 1788.04,130.826C1792.83,126.914 1799.54,126.348 1804.92,129.399C1806.72,130.427 1808.52,131.464 1810.31,132.515C1815.64,135.65 1818.5,141.737 1817.51,147.843C1815.44,160.614 1811.89,182.52 1809.9,194.814C1809.01,200.314 1811.24,205.856 1815.69,209.204C1817.5,210.559 1819.29,211.933 1821.07,213.323C1825.45,216.758 1831.38,217.479 1836.46,215.194C1847.82,210.091 1868.06,200.991 1879.87,195.687C1885.51,193.149 1892.13,194.337 1896.54,198.677C1898.01,200.137 1899.48,201.604 1900.94,203.082C1905.28,207.49 1906.47,214.11 1903.93,219.752C1898.63,231.553 1889.53,251.793 1884.42,263.153C1882.14,268.235 1882.86,274.165 1886.29,278.552C1887.68,280.328 1889.06,282.119 1890.42,283.921C1893.76,288.375 1899.3,290.605 1904.8,289.714C1917.1,287.724 1939,284.174 1951.77,282.104C1957.88,281.114 1963.97,283.974 1967.11,289.308C1968.15,291.1 1969.19,292.897 1970.22,294.701C1973.27,300.082 1972.7,306.784 1968.79,311.577C1960.61,321.604 1946.59,338.8 1938.71,348.45C1935.19,352.768 1934.35,358.683 1936.54,363.81C1937.42,365.885 1938.29,367.97 1939.13,370.063C1941.21,375.231 1945.98,378.819 1951.53,379.382C1963.92,380.642 1986,382.882 1998.87,384.188C2005.02,384.812 2010.16,389.151 2011.81,395.115C2012.36,397.116 2012.9,399.121 2013.42,401.129C2014.97,407.117 2012.69,413.444 2007.67,417.061C1997.18,424.63 1979.18,437.609 1969.08,444.893C1964.56,448.153 1962.22,453.649 1963,459.166C1963.32,461.4 1963.61,463.637 1963.89,465.877C1964.56,471.408 1968.24,476.11 1973.45,478.087C1985.09,482.512 2005.84,490.39 2017.93,494.982C2023.72,497.178 2027.56,502.7 2027.61,508.887C2027.62,510.962 2027.62,513.038 2027.61,515.113C2027.56,521.298 2023.72,526.819 2017.93,529.015C2005.84,533.61 1985.09,541.488 1973.45,545.91C1968.24,547.888 1964.56,552.591 1963.89,558.123C1963.61,560.363 1963.32,562.6 1963,564.834C1962.22,570.351 1964.56,575.846 1969.08,579.104C1979.18,586.391 1997.18,599.37 2007.68,606.937C2012.69,610.555 2014.98,616.883 2013.42,622.872C2012.9,624.879 2012.36,626.884 2011.81,628.884C2010.16,634.846 2005.02,639.185 1998.87,639.809C1986,641.118 1963.92,643.358 1951.53,644.615C1945.98,645.178 1941.21,648.767 1939.13,653.936C1938.29,656.03 1937.42,658.115 1936.54,660.191C1935.74,662.079 1935.34,664.073 1935.34,666.056L1843.53,564.436C1846.99,547.494 1848.81,529.957 1848.81,512C1848.81,465.163 1836.45,421.189 1814.83,383.162L1458.78,739.209ZM1587.62,447C1551.74,447 1522.62,476.126 1522.62,512C1522.62,547.874 1551.74,577 1587.62,577C1623.49,577 1652.62,547.874 1652.62,512C1652.62,476.126 1623.49,447 1587.62,447ZM1489.25,512L1360.41,383.162C1338.78,421.189 1326.43,465.163 1326.43,512C1326.43,558.837 1338.78,602.811 1360.41,640.838L1489.25,512ZM1716.45,284.791C1678.43,263.166 1634.45,250.811 1587.62,250.811C1540.78,250.811 1496.81,263.166 1458.78,284.791L1587.62,413.629L1716.45,284.791Z" style="fill:white;fill-opacity:0.7;"/>
            <path d="M1593,674.352C1590.68,674.45 1588.35,674.5 1586,674.5C1496.31,674.5 1423.5,601.686 1423.5,512C1423.5,422.314 1496.31,349.5 1586,349.5C1675.69,349.5 1748.5,422.314 1748.5,512C1748.5,514.265 1748.45,516.519 1748.36,518.762L2002.5,800.06C2034.87,835.896 2033.48,890.82 1999.33,924.97L1996.93,927.371C1964.15,960.151 1911.44,961.511 1877.01,930.465L1593,674.352ZM1587.62,447C1551.74,447 1522.62,476.126 1522.62,512C1522.62,547.874 1551.74,577 1587.62,577C1623.49,577 1652.62,547.874 1652.62,512C1652.62,476.126 1623.49,447 1587.62,447Z" style="fill:white;"/>
        </g>
    </g>
</svg>
