<?xml version="1.0" encoding="UTF-8" standalone="no"?>
<!DOCTYPE svg PUBLIC "-//W3C//DTD SVG 1.1//EN" "http://www.w3.org/Graphics/SVG/1.1/DTD/svg11.dtd">
<svg width="100%" height="100%" viewBox="0 0 500 500" version="1.1" xmlns="http://www.w3.org/2000/svg" xmlns:xlink="http://www.w3.org/1999/xlink" xml:space="preserve" xmlns:serif="http://www.serif.com/" style="fill-rule:evenodd;clip-rule:evenodd;stroke-linejoin:round;stroke-miterlimit:2;">
    <g id="logo_voll_2-zeilig" transform="matrix(1,0,0,1,104.5,179)">
        <rect x="0" y="0" width="291" height="142" style="fill:none;"/>
    </g>
    <g transform="matrix(1,0,0,1,104.5,179)">
        <path d="M185.984,62.759C185.914,64.362 184.594,65.626 182.989,65.626C179.336,65.628 173.095,65.628 169.315,65.628C168.485,65.628 167.692,65.284 167.125,64.678C166.557,64.072 166.267,63.258 166.321,62.43C166.439,61.049 166.606,59.271 166.824,57.096L166.636,57.096C161.886,63.565 156.543,66.8 150.605,66.8C145.886,66.8 142.238,65.159 139.66,61.878C137.082,58.596 135.793,53.987 135.793,48.05C135.793,43.8 136.613,39.612 138.254,35.487C139.894,31.362 142.16,27.925 145.051,25.175C147.941,22.425 151.488,20.284 155.691,18.753C159.894,17.221 164.746,16.456 170.246,16.456C176.884,16.456 183.813,17.208 191.033,18.713C191.811,18.878 192.492,19.345 192.926,20.012C193.36,20.678 193.511,21.49 193.346,22.268C191.774,29.69 187.73,48.753 187.73,48.753C187.23,50.971 186.801,53.784 186.441,57.19C186.222,59.267 186.07,61.123 185.984,62.759ZM171.98,29.44C171.23,29.253 170.277,29.159 169.121,29.159C166.621,29.159 164.371,29.878 162.371,31.315C160.371,32.753 158.754,34.909 157.519,37.784C156.285,40.659 155.668,43.534 155.668,46.409C155.668,48.284 156.074,49.714 156.886,50.698C157.699,51.682 158.699,52.175 159.886,52.175C162.136,52.175 164.152,50.901 165.933,48.354C167.715,45.807 169.121,42.159 170.152,37.409L171.98,29.44Z" style="fill:white;fill-rule:nonzero;"/>
    </g>
    <g transform="matrix(1,0,0,1,104.5,179)">
        <path d="M137.014,30.8C137.014,36.3 134.49,40.393 129.443,43.081C124.396,45.768 116.623,47.268 106.123,47.581L106.123,47.956C106.123,49.768 106.889,51.182 108.42,52.198C109.951,53.214 111.998,53.721 114.561,53.721C116.842,53.721 119.584,53.331 122.787,52.55C123.818,52.298 124.79,52.032 125.703,51.751C126.718,51.433 127.825,51.677 128.612,52.392C129.399,53.107 129.748,54.186 129.528,55.226C129.063,57.457 128.555,59.86 128.237,61.362C128.034,62.323 127.374,63.123 126.47,63.505C124.334,64.371 121.857,65.104 119.037,65.698C115.553,66.432 112.076,66.8 108.607,66.8C101.889,66.8 96.607,65.018 92.764,61.456C88.92,57.893 86.998,53.018 86.998,46.831C86.998,41.206 88.318,36.018 90.959,31.268C93.6,26.518 97.24,22.862 101.881,20.3C106.521,17.737 111.873,16.456 117.936,16.456C123.998,16.456 128.693,17.69 132.021,20.159C135.35,22.628 137.014,26.175 137.014,30.8ZM118.592,30.706C118.592,30.018 118.381,29.393 117.959,28.831C117.537,28.268 116.795,27.987 115.732,27.987C113.639,27.987 111.834,28.784 110.318,30.378C108.803,31.971 107.779,34.221 107.248,37.128C110.779,37.128 113.553,36.596 115.568,35.534C117.584,34.471 118.592,32.862 118.592,30.706Z" style="fill:white;fill-rule:nonzero;"/>
    </g>
    <g transform="matrix(1,0,0,1,104.5,179)">
        <path d="M275.509,28.268C275.509,30.612 275.166,33.331 274.478,36.425C274.478,36.425 270.304,56.277 268.838,63.245C268.546,64.634 267.322,65.628 265.903,65.628L252.076,65.628C251.171,65.628 250.314,65.219 249.744,64.515C249.175,63.811 248.953,62.887 249.142,62.002C250.695,54.728 254.041,39.05 254.041,39.05C254.541,37.05 254.791,35.44 254.791,34.221C254.791,32.128 253.728,31.081 251.603,31.081C250.572,31.081 249.376,31.604 248.017,32.651C246.658,33.698 245.462,35.073 244.431,36.776C243.4,38.479 242.697,40.221 242.322,42.003C242.322,42.003 239.212,57.219 237.984,63.228C237.699,64.625 236.47,65.628 235.045,65.628L221.139,65.628C220.233,65.628 219.376,65.219 218.807,64.515C218.237,63.811 218.016,62.887 218.205,62.002C219.757,54.728 223.103,39.05 223.103,39.05C223.634,36.925 223.9,35.315 223.9,34.221C223.9,32.128 222.837,31.081 220.712,31.081C219.025,31.081 217.197,32.198 215.228,34.432C213.259,36.667 211.978,39.19 211.384,42.003C211.384,42.003 208.178,57.248 206.917,63.245C206.625,64.634 205.4,65.628 203.981,65.628L190.06,65.628C189.155,65.628 188.298,65.219 187.728,64.515C187.159,63.811 186.937,62.888 187.126,62.002C188.908,53.647 193.15,33.753 193.15,33.753C194.075,29.364 194.889,24.841 195.59,20.184C195.81,18.715 197.072,17.628 198.557,17.628L212.382,17.628C213.229,17.628 214.037,17.986 214.606,18.614C215.175,19.243 215.451,20.082 215.367,20.926C215.174,23.038 214.942,24.689 214.666,25.878L214.853,25.878C217.416,22.971 220.361,20.675 223.689,18.987C227.017,17.3 230.15,16.456 233.087,16.456C240.244,16.456 244.056,19.987 244.525,27.05C246.962,23.831 249.939,21.26 253.455,19.339C256.97,17.417 260.494,16.456 264.025,16.456C271.681,16.456 275.509,20.393 275.509,28.268Z" style="fill:white;fill-rule:nonzero;"/>
    </g>
    <g transform="matrix(1,0,0,1,104.5,179)">
        <path d="M42.263,103.841C42.075,104.663 41.549,105.367 40.815,105.782C40.081,106.197 39.207,106.284 38.406,106.022C36.909,105.534 35.173,105.315 33.213,105.315C29.588,105.315 26.518,106.612 24.002,109.206C21.487,111.8 20.229,115.003 20.229,118.815C20.229,123.878 22.885,126.409 28.197,126.409C29.697,126.409 31.369,126.182 33.213,125.729C33.282,125.712 33.351,125.695 33.42,125.677C34.42,125.424 35.479,125.702 36.226,126.413C36.973,127.125 37.301,128.17 37.096,129.181C36.595,131.658 36.037,134.407 35.707,136.035C35.519,136.967 34.899,137.754 34.038,138.157C32.169,139.005 30.169,139.669 28.033,140.143C25.362,140.737 22.791,141.034 20.322,141.034C14.104,141.034 9.221,139.276 5.674,135.76C2.127,132.245 0.354,127.409 0.354,121.253C0.354,115.659 1.705,110.503 4.408,105.784C7.112,101.065 10.869,97.37 15.682,94.698C20.494,92.026 25.916,90.69 31.947,90.69C35.909,90.69 39.348,91.194 42.265,92.203C43.658,92.728 44.449,94.203 44.117,95.654C43.621,97.917 42.846,101.298 42.263,103.841Z" style="fill:white;fill-rule:nonzero;"/>
    </g>
    <g transform="matrix(1,0,0,1,104.5,179)">
        <path d="M110.822,136.995C110.751,138.597 109.431,139.86 107.827,139.86C104.08,139.862 97.592,139.862 93.704,139.862C92.862,139.862 92.06,139.509 91.491,138.888C90.923,138.267 90.641,137.437 90.715,136.599C90.877,134.613 91.052,133.076 91.24,131.987L91.052,131.987C88.24,135.018 85.271,137.284 82.146,138.784C79.021,140.284 75.912,141.034 72.818,141.034C65.006,141.034 61.099,137.096 61.099,129.221C61.099,126.878 61.443,124.159 62.131,121.065C62.131,121.065 66.339,101.204 67.814,94.24C68.108,92.854 69.332,91.862 70.749,91.862L84.575,91.862C85.481,91.862 86.339,92.271 86.909,92.976C87.478,93.681 87.699,94.605 87.509,95.491C85.975,102.644 82.709,117.878 82.709,117.878C82.177,120.003 81.912,121.768 81.912,123.175C81.912,123.8 82.138,124.354 82.592,124.839C83.045,125.323 83.756,125.565 84.724,125.565C87.006,125.565 89.068,124.401 90.912,122.073C92.756,119.745 94.021,116.878 94.709,113.471C94.709,113.471 97.541,99.873 98.711,94.25C99.001,92.859 100.227,91.862 101.648,91.862L115.471,91.862C116.376,91.862 117.233,92.271 117.803,92.975C118.372,93.678 118.594,94.602 118.405,95.487C116.698,103.498 112.756,122.003 112.756,122.003C112.162,124.815 111.677,127.925 111.302,131.331C111.071,133.433 110.911,135.321 110.822,136.995Z" style="fill:white;fill-rule:nonzero;"/>
    </g>
    <g transform="matrix(1,0,0,1,104.5,179)">
        <path d="M154.554,102.619C154.393,103.461 153.878,104.194 153.141,104.633C152.403,105.071 151.513,105.172 150.696,104.912C149.835,104.639 148.909,104.376 147.917,104.12C145.558,103.51 143.425,103.206 141.519,103.206C138.644,103.206 137.206,104.096 137.206,105.878C137.206,106.846 137.566,107.557 138.285,108.01C139.003,108.464 139.956,108.94 141.144,109.44C144.863,110.94 147.511,112.292 149.089,113.495C150.667,114.698 151.831,116.12 152.581,117.76C153.331,119.401 153.706,121.456 153.706,123.925C153.706,127.3 152.722,130.276 150.753,132.854C148.785,135.432 145.925,137.44 142.175,138.878C138.425,140.315 133.878,141.034 128.535,141.034C125.378,141.034 122.324,140.807 119.371,140.354C117.619,140.085 116.024,139.781 114.585,139.441C113.043,139.06 112.066,137.542 112.358,135.981C112.752,133.854 113.309,130.874 113.746,128.542C113.909,127.67 114.449,126.915 115.222,126.48C115.995,126.045 116.92,125.973 117.75,126.286C121.973,127.903 125.803,128.706 129.238,128.706C133.144,128.706 135.097,127.69 135.097,125.659C135.097,124.753 134.667,124.01 133.808,123.432C132.949,122.854 131.863,122.346 130.55,121.909C125.863,120.378 122.566,118.487 120.66,116.237C118.753,113.987 117.8,111.081 117.8,107.518C117.8,104.175 118.792,101.19 120.777,98.565C122.761,95.94 125.496,93.971 128.98,92.659C132.464,91.346 136.581,90.69 141.331,90.69C143.581,90.69 146.253,90.901 149.347,91.323C150.937,91.54 152.337,91.759 153.547,91.98C155.169,92.295 156.23,93.863 155.919,95.486C155.521,97.574 154.978,100.409 154.554,102.619Z" style="fill:white;fill-rule:nonzero;"/>
    </g>
    <g transform="matrix(1,0,0,1,104.5,179)">
        <path d="M186.048,78.409C186.048,81.378 184.962,83.784 182.79,85.628C180.618,87.471 177.767,88.393 174.236,88.393C171.111,88.393 168.564,87.573 166.595,85.932C164.626,84.292 163.642,82.237 163.642,79.768C163.642,76.768 164.736,74.339 166.923,72.479C169.111,70.62 171.986,69.69 175.548,69.69C178.611,69.69 181.126,70.495 183.095,72.104C185.064,73.714 186.048,75.815 186.048,78.409ZM172.911,137.484C172.618,138.87 171.394,139.862 169.977,139.862L156.141,139.862C155.236,139.862 154.38,139.454 153.81,138.751C153.241,138.048 153.019,137.125 153.206,136.24C155.191,126.873 160.454,102.039 162.107,94.24C162.4,92.854 163.624,91.862 165.041,91.862L178.877,91.862C179.782,91.862 180.638,92.27 181.208,92.973C181.777,93.676 181.999,94.599 181.812,95.484C179.827,104.851 174.564,129.685 172.911,137.484Z" style="fill:white;fill-rule:nonzero;"/>
    </g>
    <g transform="matrix(1,0,0,1,104.5,179)">
        <path d="M232.483,111.831C232.483,117.425 231.226,122.542 228.71,127.182C226.194,131.823 222.686,135.292 218.186,137.589C213.686,139.885 208.405,141.034 202.343,141.034C194.936,141.034 189.21,139.175 185.163,135.456C181.116,131.737 179.093,126.518 179.093,119.8C179.093,115.862 179.811,112.003 181.249,108.221C182.686,104.44 184.686,101.26 187.249,98.682C189.811,96.104 192.96,94.128 196.694,92.753C200.429,91.378 204.702,90.69 209.515,90.69C216.827,90.69 222.483,92.526 226.483,96.198C230.483,99.87 232.483,105.081 232.483,111.831ZM212.608,111.831C212.608,109.706 212.155,108.089 211.249,106.979C210.343,105.87 209.124,105.315 207.593,105.315C205.874,105.315 204.374,105.979 203.093,107.307C201.811,108.635 200.804,110.464 200.069,112.792C199.335,115.12 198.968,117.518 198.968,119.987C198.968,122.112 199.429,123.714 200.351,124.792C201.272,125.87 202.515,126.409 204.077,126.409C206.64,126.409 208.702,125.034 210.265,122.284C211.827,119.534 212.608,116.05 212.608,111.831Z" style="fill:white;fill-rule:nonzero;"/>
    </g>
    <g transform="matrix(1,0,0,1,104.5,179)">
        <path d="M287.294,102.503C287.294,104.69 286.934,107.409 286.216,110.659C286.216,110.659 282.041,130.511 280.576,137.479C280.284,138.868 279.059,139.862 277.64,139.862L263.814,139.862C262.908,139.862 262.051,139.453 261.482,138.749C260.912,138.045 260.691,137.121 260.88,136.236C262.432,128.963 265.778,113.284 265.778,113.284C266.309,111.159 266.575,109.55 266.575,108.456C266.575,106.362 265.512,105.315 263.387,105.315C261.7,105.315 259.872,106.432 257.903,108.667C255.934,110.901 254.653,113.425 254.059,116.237C254.059,116.237 250.917,131.463 249.678,137.468C249.391,138.862 248.163,139.862 246.74,139.862L232.735,139.862C231.83,139.862 230.973,139.453 230.403,138.749C229.834,138.045 229.612,137.122 229.801,136.236C231.583,127.882 235.825,107.987 235.825,107.987C236.75,103.598 237.564,99.076 238.265,94.419C238.485,92.95 239.747,91.862 241.232,91.862L255.057,91.862C255.904,91.862 256.712,92.22 257.281,92.849C257.85,93.477 258.126,94.317 258.042,95.16C257.849,97.272 257.617,98.923 257.341,100.112L257.528,100.112C260.091,97.206 263.036,94.909 266.364,93.221C269.692,91.534 272.825,90.69 275.762,90.69C283.45,90.69 287.294,94.628 287.294,102.503Z" style="fill:white;fill-rule:nonzero;"/>
    </g>
    <g transform="matrix(1,0,0,1,104.5,179)">
        <path d="M59.281,31.456L55.834,31.456C54.912,31.456 54.041,31.033 53.471,30.309C52.901,29.585 52.694,28.64 52.909,27.744C53.508,25.257 54.277,22.059 54.789,19.932C55.115,18.58 56.324,17.628 57.714,17.628L62.188,17.628C62.188,17.628 63.437,11.613 64.093,8.453C64.331,7.303 65.219,6.396 66.364,6.133C69.578,5.395 76.215,3.87 80.713,2.837C81.713,2.607 82.761,2.903 83.493,3.622C84.226,4.34 84.541,5.383 84.33,6.387L81.969,17.628L89.261,17.628C90.182,17.628 91.053,18.05 91.623,18.774C92.194,19.498 92.401,20.443 92.185,21.339C91.586,23.827 90.817,27.024 90.305,29.152C89.979,30.503 88.77,31.456 87.38,31.456L78.969,31.456C78.969,31.456 60.157,121.561 56.834,137.475C56.544,138.866 55.318,139.862 53.898,139.862L40.068,139.862C39.163,139.862 38.307,139.454 37.737,138.751C37.168,138.049 36.945,137.127 37.132,136.242C41.114,117.404 59.281,31.456 59.281,31.456Z" style="fill:white;fill-rule:nonzero;"/>
    </g>
</svg>
