<svg clip-rule="evenodd" fill-rule="evenodd" stroke-linejoin="round" stroke-miterlimit="2" viewBox="0 0 380 120" xmlns="http://www.w3.org/2000/svg"><g fill-rule="nonzero"><path d="m26.486 9.865c-.461 5.906-.691 9.486-.691 10.74s.055 2.966.167 5.136c.112 2.169.188 3.718.227 4.648.04.93.139 2.602.297 5.016.159 2.415.26 4.134.303 5.157.043 1.024.114 2.874.211 5.552.097 2.677.157 4.581.178 5.713.022 1.132.078 2.95.168 5.454.09 2.505.144 4.287.162 5.346s.042 2.78.07 5.162c.029 2.382.042 4.076.038 5.081-.003 1.006-.023 2.638-.059 4.898-.036 2.259-.069 3.863-.098 4.81-.028.948-.091 2.312-.189 4.092-.097 1.78-.175 3.042-.232 3.784-.058.742-.141 1.899-.249 3.47s-.263 3.375-.465 5.411c-.201 2.036-.389 3.818-.562 5.346s-.4 2.881-.681 4.06c-.281 1.178-.566 2.185-.854 3.021s-.715 1.524-1.281 2.065-1.261.717-2.087.53c-.825-.188-1.45-.672-1.875-1.454s-.788-1.782-1.087-3-.585-2.654-.859-4.308-.535-3.57-.784-5.746c-.249-2.177-.51-4.454-.784-6.833-.274-2.378-.445-3.931-.513-4.659-.069-.728-.153-2.006-.254-3.833s-.164-3.128-.189-3.902c-.026-.775-.055-2.031-.087-3.768s-.047-2.977-.043-3.719c.003-.742.131-1.683.384-2.821.252-1.139.677-2.265 1.275-3.379.598-1.113 1.418-1.85 2.46-2.211 1.041-.36 2.099-.243 3.173.352 1.074.594 2.032 1.513 2.875 2.756.844 1.244 1.698 2.692 2.563 4.346.864 1.654 1.72 3.323 2.567 5.006s1.683 3.236 2.508 4.659c.825 1.424 1.687 2.681 2.584 3.773s1.757 1.824 2.578 2.195c.822.371 1.743.557 2.763.557 1.019 0 2.055-.285 3.108-.854 1.052-.57 2.097-1.388 3.135-2.455 1.038-1.066 2.056-2.333 3.054-3.8.998-1.466 1.94-3.019 2.827-4.659.886-1.64 1.665-3.175 2.335-4.605.67-1.431 1.223-2.75 1.659-3.957s.764-2.247.984-3.119.472-1.595.757-2.168.472-.886.562-.94.18-.09.27-.108.188-.031.292-.038c.105-.007.204.002.298.027.093.025.185.058.275.097.09.04.173.096.249.168s.142.144.2.216.104.159.14.259c.036.101.062.195.076.282.015.086.016.185.006.297-.011.112-.033.207-.065.286-.033.08-.078.168-.135.265-.058.097-.121.171-.19.222-.068.05.071.791.417 2.221.346 1.431.567 3.107.664 5.027.098 1.921.193 4.022.287 6.303s.222 4.679.384 7.195c.162 2.515.265 4.178.308 4.989s.182 1.995.416 3.551c.234 1.557.526 3.308.876 5.254.349 1.946.697 3.557 1.043 4.833.346 1.275.658 1.335.935.178.278-1.157.366-2.371.265-3.643s-.278-2.634-.53-4.087c-.252-1.452-.6-3.084-1.043-4.897s-.96-3.809-1.551-5.989-1.281-4.569-2.071-7.168c-.789-2.598-1.31-4.288-1.562-5.07s-.675-2.245-1.27-4.389-1.013-3.651-1.254-4.519c-.242-.868-.604-2.234-1.087-4.097s-.823-3.17-1.021-3.919c-.198-.75-.438-1.698-.719-2.843-.281-1.146-.532-2.231-.752-3.255-.219-1.023-.448-1.949-.686-2.778s-.099-1.598.416-2.308c.516-.71.854-.832 1.016-.368.163.465.253.656.271.573s.045-.196.081-.34.088-.247.157-.308c.068-.062.144-.148.227-.26.082-.111.176-.18.281-.205.104-.025.21-.067.319-.124.108-.058.223-.074.346-.049.122.025.237.038.345.038.109 0 .217.039.325.119.108.079.203.142.286.189s.162.133.238.259.13.227.162.303c.033.076.063.187.092.335s-.13-.02-.476-.503c-.345-.482-.443-.673-.291-.573.151.101.273.193.367.276s.182.211.265.384.126.321.13.443c.003.123-.004.278-.022.465s-.074.33-.167.427c-.094.097-.193.216-.298.357-.104.14-.236.221-.394.243-.159.022-.308.056-.449.103s-.294.03-.459-.049c-.166-.079-.307-.142-.422-.189s-.229-.151-.341-.314c-.111-.162-.185-.297-.221-.405s-.061-.261-.076-.459c-.014-.199.009-.35.07-.455.062-.104.132-.241.211-.41.079-.17.191-.278.335-.325.144-.046.283-.111.417-.194.133-.083.286-.101.459-.054s.324.077.454.092c.13.014.261.093.395.237.133.145.234.262.302.352.069.09.128.232.179.427.05.194.059.348.027.459-.033.112-.072.262-.119.449s-.132.315-.254.384c-.123.068-.245.164-.368.286-.122.123-.268.173-.438.152-.169-.022-.49-.247-.962-.676s-.71-.724-.713-.887c-.004-.162.023-.275.081-.34.057-.065.11-.168.157-.308.046-.141.122-.227.227-.26.104-.032.198-.101.281-.205.083-.105.189-.146.319-.124.129.021.245.005.346-.049.1-.054.216-.042.345.038.13.079.238.119.325.119.086 0 .182.063.286.189.105.126.184.212.238.259s.108.148.162.303.085.267.092.335c.007.069-.18.171-.562.308s-.539.573-.47 1.308c.068.735.189 1.633.362 2.692.173 1.06.358 2.114.557 3.162.198 1.049.398 1.988.6 2.817.201.828.526 2.131.973 3.908.446 1.776.792 3.137 1.037 4.081.246.944.646 2.436 1.2 4.475.555 2.04.959 3.491 1.211 4.352.253.861.761 2.58 1.525 5.157.764 2.576 1.425 4.996 1.983 7.259.559 2.263 1.065 4.287 1.519 6.07.454 1.784.822 3.48 1.103 5.087s.467 3.063.557 4.367c.09 1.305.117 2.516.081 3.633s-.146 2.077-.33 2.881c-.184.803-.591 1.504-1.222 2.103-.63.598-1.313.818-2.048.659s-1.434-.629-2.097-1.411c-.664-.782-1.213-1.888-1.649-3.319-.436-1.43-.872-3.135-1.308-5.113-.436-1.979-.771-3.829-1.006-5.552-.234-1.722-.369-2.956-.405-3.702s-.119-2.429-.249-5.049c-.129-2.62-.194-5.054-.194-7.303 0-2.248.005-4.344.016-6.286s.02-3.555.027-4.838.11-2.346.308-3.189.35-1.27.454-1.281c.105-.011.195-.047.27-.108.076-.062.173-.074.292-.038s.218.045.298.027c.079-.018.171.014.275.097.105.083.188.139.249.168s.128.101.2.216.119.202.14.259c.022.058.047.152.076.282.029.129.031.228.006.297-.026.068-.047.164-.065.286-.018.123-.063.211-.135.265-.073.054-.136.128-.19.222-.054.093-.09.153-.108.178s-.135.539-.351 1.541-.571 2.131-1.065 3.389-1.068 2.627-1.724 4.108-1.44 3.072-2.352 4.773c-.911 1.701-1.872 3.351-2.881 4.951s-2.106 3.026-3.292 4.276c-1.185 1.25-2.497 2.294-3.935 3.13s-2.868 1.288-4.292 1.356c-1.423.069-2.832-.207-4.227-.827-1.394-.619-2.652-1.56-3.773-2.821-1.12-1.261-2.126-2.651-3.016-4.168s-1.755-3.133-2.594-4.848c-.84-1.716-1.644-3.381-2.411-4.995-.768-1.614-1.456-2.921-2.065-3.919s-1.218-1.686-1.827-2.065c-.609-.378-1.146-.243-1.611.406-.465.648-.813 1.445-1.043 2.389-.231.944-.353 1.773-.368 2.486-.014.714-.005 1.934.027 3.66.033 1.726.054 2.964.065 3.713.011.75.07 2.024.178 3.822.109 1.798.191 3.049.249 3.751.058.703.236 2.253.535 4.649s.58 4.654.844 6.773c.263 2.119.549 3.98.859 5.584.31 1.603.55 2.798.719 3.583.169.786.274 1.559.313 2.319.04.761.164.741.373-.059s.42-1.732.633-2.795c.212-1.063.398-2.34.557-3.832.158-1.492.327-3.243.508-5.254.18-2.011.328-3.8.443-5.368.115-1.567.205-2.713.27-3.438.065-.724.148-1.96.249-3.708.101-1.747.171-3.088.211-4.021.039-.934.077-2.523.113-4.768s.063-3.861.081-4.849c.018-.987.013-2.668-.016-5.043s-.045-4.084-.049-5.129c-.003-1.046-.043-2.828-.119-5.346-.075-2.519-.115-4.336-.118-5.449-.004-1.114-.051-3.005-.141-5.676-.09-2.67-.144-4.51-.162-5.519s-.092-2.733-.222-5.173c-.13-2.439-.198-4.113-.205-5.021s-.078-2.481-.211-4.719-.182-3.973-.146-5.206c.036-1.232-.079-3.337-.346-6.313-.267-2.977-.371-4.539-.313-4.687.057-.147.099-.315.124-.502.025-.188.104-.341.238-.46.133-.119.248-.247.346-.384.097-.136.238-.236.421-.297.184-.061.346-.122.487-.184.14-.061.312-.081.513-.059.202.022.373.041.514.059.14.018.303.08.486.184.184.105.325.204.422.297.097.094.213.222.346.384s.213.316.238.46.066.311.124.502l.032.26z"/><path d="m80.286 51.049c-4.345 1.524-6.953 2.459-7.821 2.805-.869.346-1.494.829-1.876 1.449s-.722 1.358-1.021 2.216c-.3.858-.449 1.767-.449 2.73 0 .962.18 1.964.54 3.005.361 1.041.856 2.094 1.487 3.157s1.393 2.104 2.286 3.124c.894 1.02 1.836 2.016 2.827 2.989s1.977 1.863 2.957 2.671c.98.807 1.95 1.582 2.908 2.324.959.742 1.811 1.431 2.557 2.065s1.382 1.321 1.908 2.059c.526.739.916 1.516 1.168 2.33s.317 1.683.194 2.605c-.122.923-.448 1.845-.978 2.768-.53.922-1.193 1.823-1.989 2.703-.797.879-1.676 1.679-2.638 2.4-.962.72-1.973 1.351-3.032 1.892-1.06.54-2.139.96-3.238 1.259s-2.125.51-3.076.632c-.951.123-1.883.181-2.795.173-.911-.007-2.167-.356-3.767-1.048s-2.442-1.116-2.524-1.271c-.083-.154-.15-.299-.2-.432-.051-.133-.067-.292-.049-.476.018-.183.054-.338.108-.464.054-.127.137-.262.249-.406.111-.144.232-.245.362-.303.13-.057.277-.115.443-.173.166-.057.324-.066.476-.027.151.04.304.085.459.136.155.05.287.14.395.27s.203.256.286.378c.083.123.132.274.146.454.015.18.013.339-.005.476s-.069.286-.152.449c-.082.162-.18.288-.291.378-.112.09-.244.178-.395.265-.151.086-.305.128-.46.124-.154-.003-.313-.012-.475-.027-.162-.014-.31-.076-.443-.184-.134-.108-.254-.21-.363-.308-.108-.097-.189-.234-.243-.411-.054-.176-.086-.331-.097-.464-.011-.134.007-.292.054-.476s.115-.326.205-.427.2-.216.33-.346.27-.204.422-.222c.151-.018.308-.041.47-.07s.319-.002.47.081c.152.083.29.157.416.222.127.065.191.115.195.151s.153.069.449.097c.295.029.821.031 1.578.006s1.674-.078 2.751-.157c1.078-.079 2.056-.189 2.936-.33.879-.14 1.745-.396 2.6-.767.854-.371 1.686-.788 2.497-1.249s1.607-1.061 2.389-1.8 1.449-1.44 2-2.103.923-1.373 1.114-2.129c.191-.757.093-1.436-.292-2.038-.386-.602-.912-1.229-1.579-1.881-.666-.653-1.461-1.321-2.384-2.006-.922-.684-1.924-1.459-3.005-2.324s-2.176-1.766-3.286-2.703-2.17-2.012-3.179-3.227c-1.009-1.214-1.884-2.416-2.627-3.605-.742-1.189-1.349-2.505-1.821-3.946-.473-1.442-.709-2.789-.709-4.043s.253-2.575.757-3.963c.505-1.387 1.164-2.524 1.979-3.41.814-.887 1.684-1.559 2.61-2.017.927-.457 2.431-1.158 4.514-2.102s3.204-1.467 3.362-1.568c.159-.101.33-.128.514-.081.183.047.355.063.513.049.159-.015.323.041.492.167s.314.22.432.281c.119.062.238.188.357.379s.204.34.254.448c.051.109.098.274.141.498.043.223.047.396.011.519-.036.122-.072.29-.109.502-.036.213-.109.37-.221.471s-.224.232-.335.394c-.112.162-.251.265-.416.308z"/><path d="m91.184 15.416c1.636-3.362 2.575-5.418 2.816-6.167.241-.75.463-1.413.665-1.99.202-.576.331-.917.389-1.021.058-.105.128-.2.211-.287.083-.086.175-.162.276-.227.1-.065.209-.117.324-.156.115-.04.23-.063.346-.071.115-.007.234-.003.357.011.122.015.237.047.346.097.108.051.21.109.308.173.097.065.183.148.259.249s.141.2.195.297c.054.098.092.211.113.341.022.13.033.249.033.357s-.018.225-.054.351.059.917.286 2.373.348 3.067.362 4.832c.015 1.766.034 3.793.06 6.081.025 2.289.036 3.809.032 4.563-.003.753.029 2.362.097 4.827.069 2.465.114 4.232.136 5.302.021 1.071.07 3.069.145 5.995.076 2.926.127 5.018.152 6.276.025 1.257.07 3.493.135 6.708.065 3.214.11 5.511.135 6.892.025 1.38.072 3.573.141 6.578.068 3.005.117 5.155.146 6.449.028 1.293.052 3.066.07 5.319.018 2.252.03 3.863.038 4.832.007.969-.038 2.371-.135 4.205-.098 1.835-.168 3.141-.211 3.919-.043.779-.126 1.903-.249 3.373-.122 1.471-.27 3.009-.443 4.617-.173 1.607-.355 2.92-.546 3.94s-.474 1.903-.849 2.649-.6 1.156-.675 1.232c-.076.076-.17.173-.281.292-.112.119-.237.207-.373.265-.137.058-.278.113-.422.167-.144.055-.294.076-.449.065-.155-.01-.306-.027-.454-.048-.148-.022-.29-.072-.427-.152-.137-.079-.265-.164-.384-.254s-.221-.202-.308-.335c-.086-.133-.158-.265-.216-.394-.058-.13-.097-.278-.119-.444-.021-.165-.025-.317-.011-.454.015-.137.049-.284.103-.443s.123-.294.205-.405c.083-.112.094.207.033.956-.061.75-.294.663-.697-.259-.404-.923-.734-2.045-.99-3.368-.255-1.322-.502-2.832-.74-4.529-.238-1.698-.458-3.627-.66-5.79-.201-2.162-.358-4.477-.47-6.946-.112-2.468-.185-4.088-.221-4.859-.037-.771-.004-1.959.097-3.562.101-1.604.315-3.391.643-5.362s.827-3.71 1.497-5.217c.671-1.506 1.517-2.702 2.541-3.589 1.023-.886 2.104-1.454 3.243-1.702 1.139-.249 2.315-.26 3.53-.033 1.214.227 2.407.724 3.578 1.492s2.28 1.571 3.325 2.411c1.045.839 2.108 1.715 3.189 2.627s2.075 1.69 2.984 2.335c.908.645 1.742 1.16 2.502 1.546.761.386 1.534.508 2.319.368.786-.141 1.292-.649 1.519-1.525.227-.875.148-1.868-.238-2.978-.385-1.11-.827-2.013-1.324-2.708-.497-.696-1.094-1.343-1.789-1.941-.696-.598-1.499-1.157-2.411-1.676-.912-.518-1.793-.895-2.643-1.129-.851-.234-1.737-.252-2.66-.054-.922.198-1.668.697-2.238 1.497-.569.8-1.018 1.665-1.346 2.595-.327.929-.691 2.243-1.091 3.94s-.723 3.629-.968 5.795c-.245 2.165-.414 4.414-.508 6.746-.094 2.331-.072 4.596.065 6.794s.369 4.121.697 5.768.667 2.967 1.016 3.962c.35.995.952 1.339 1.806 1.032.854-.306 1.646-.825 2.378-1.556.732-.732 1.476-1.707 2.232-2.925.757-1.218 1.582-2.583 2.476-4.097.894-1.513 1.724-3.04 2.492-4.578.768-1.539 1.555-3.076 2.362-4.611s1.58-3.009 2.319-4.422c.739-1.412 1.447-2.609 2.124-3.589.678-.98 1.372-1.768 2.082-2.362.709-.595 1.547-.856 2.513-.784s1.764.535 2.395 1.389c.63.854 1.12 1.818 1.47 2.892.349 1.074.659 2.175.93 3.303.27 1.128.528 2.333.773 3.616s.423 2.568.535 3.854c.111 1.287.223 2.517.335 3.692s.2 2.189.265 3.043.084 1.462.059 1.822.006.593.092.697c.087.105.173.231.26.379.086.147.142.29.167.427s.043.29.054.459-.007.321-.054.454-.099.278-.157.433c-.057.155-.146.282-.265.383-.118.101-.232.202-.34.303s-.243.173-.405.216c-.163.044-.312.081-.449.114-.137.032-.29.032-.46 0-.169-.033-.318-.069-.448-.108-.13-.04-.267-.11-.411-.211s-.214-.602-.211-1.503c.004-.901.188-1.811.552-2.73.363-.918.682-1.801.956-2.648s.541-1.719.8-2.616c.26-.898.535-1.755.827-2.573s.6-1.606.925-2.363c.324-.756.738-1.45 1.243-2.081.504-.63 1.142-1.122 1.913-1.475.772-.353 1.647-.391 2.627-.114.981.278 1.858.795 2.633 1.552.775.756 1.522 1.54 2.243 2.351s1.407 1.602 2.06 2.373c.652.771 1.313 1.393 1.983 1.865.671.472 1.444.836 2.319 1.092.876.255 1.735.299 2.579.129.843-.169 1.724-.457 2.643-.865.919-.407 1.825-.87 2.719-1.389.893-.519 1.784-.998 2.67-1.438.887-.439 1.831-.681 2.832-.724 1.002-.043 1.838.191 2.509.703.67.512 1.156 1.457 1.459 2.838.303 1.38.434 2.137.395 2.27-.04.133-.078.272-.114.416s-.113.263-.232.357-.233.182-.341.265-.241.129-.4.14c-.158.011-.301.013-.427.006-.126-.008-.263-.051-.411-.13-.147-.079-.261-.164-.34-.254s-.162-.207-.249-.351c-.086-.145-.126-.282-.119-.411.007-.13.013-.274.016-.433.004-.158.056-.29.157-.394.101-.105.191-.215.27-.33.08-.115.202-.191.368-.227s.305-.068.416-.097c.112-.029.252-.017.422.038.169.054.301.113.394.178.094.065.199.16.314.286.115.127.184.253.205.379.022.126.047.266.076.421s.007.296-.065.422-.137.254-.194.384c-.058.13-.161.229-.309.297-.147.069-.277.13-.389.184-.111.054-.252.072-.421.054-.17-.018-.31-.049-.422-.092s-.234-.113-.368-.211c-.133-.097-.227-.205-.281-.324s-.108-.251-.162-.395-.07-.214-.048-.211c.021.004-.024-.38-.136-1.151-.111-.771-.52-1.146-1.227-1.124-.706.021-1.468.25-2.286.686s-1.735.979-2.751 1.627c-1.017.649-2.137 1.204-3.363 1.665-1.225.461-2.446.746-3.664.854s-2.4-.007-3.546-.346c-1.146-.338-2.202-.872-3.168-1.6s-1.811-1.52-2.535-2.378-1.378-1.685-1.962-2.481c-.584-.797-1.285-1.579-2.103-2.346-.818-.768-1.486-.784-2.005-.049s-.925 1.458-1.217 2.168c-.291.71-.553 1.521-.783 2.432-.231.912-.476 1.789-.735 2.633-.26.843-.464 1.706-.611 2.589-.148.883-.384 1.659-.708 2.33-.325.67-.545.65-.66-.06s-.135-1.016-.059-.919c.075.098.164.224.265.379.1.155.156.297.167.427.011.129.029.283.054.459.025.177.007.328-.054.454s-.113.27-.157.433c-.043.162-.131.29-.265.383-.133.094-.246.195-.34.303s-.229.18-.405.216c-.177.036-.327.074-.449.114-.123.039-.276.039-.46 0-.183-.04-.333-.076-.448-.108-.116-.033-.252-.103-.411-.211s-.355-.33-.589-.665-.463-.914-.687-1.735c-.223-.822-.369-1.678-.438-2.568-.068-.89-.171-1.92-.308-3.092-.137-1.171-.257-2.349-.362-3.535-.104-1.185-.281-2.369-.53-3.551-.248-1.182-.479-2.328-.691-3.438-.213-1.11-.519-2.178-.919-3.205s-.876-1.112-1.427-.254c-.552.857-1.222 1.956-2.011 3.297-.789 1.34-1.555 2.78-2.297 4.319-.743 1.539-1.53 3.094-2.363 4.665-.832 1.571-1.656 3.142-2.47 4.713s-1.661 3.051-2.54 4.438c-.88 1.387-1.745 2.598-2.595 3.632-.851 1.035-1.827 1.851-2.93 2.449-1.102.598-2.157.899-3.162.903-1.005.003-1.984-.409-2.935-1.238s-1.62-1.832-2.005-3.011c-.386-1.178-.777-2.71-1.173-4.594-.397-1.885-.658-3.64-.784-5.265s-.198-2.802-.216-3.53.037-2.315.167-4.762.335-4.831.616-7.152c.281-2.32.73-4.45 1.346-6.389.616-1.938 1.335-3.648 2.157-5.129.822-1.482 1.829-2.653 3.022-3.514 1.192-.861 2.369-1.364 3.529-1.508 1.161-.144 2.345-.031 3.552.34 1.207.372 2.319.873 3.335 1.503 1.016.631 1.967 1.343 2.854 2.135.886.793 1.623 1.617 2.211 2.471.587.854 1.11 1.798 1.567 2.832.458 1.034.699 2.025.725 2.973.025.948-.069 1.861-.281 2.741-.213.879-.572 1.616-1.076 2.21-.505.595-1.146 1.062-1.924 1.4-.779.339-1.649.44-2.611.303s-1.916-.427-2.86-.87-1.946-1.033-3.005-1.768c-1.06-.735-2.117-1.542-3.173-2.421-1.056-.88-2.108-1.755-3.157-2.627-1.049-.873-1.973-1.597-2.773-2.173-.8-.577-1.58-.975-2.34-1.195-.761-.22-1.505-.268-2.233-.146-.728.123-1.418.405-2.07.849-.652.443-1.269 1.27-1.849 2.481s-1.025 2.71-1.335 4.497-.499 3.447-.567 4.978c-.069 1.532-.094 2.669-.076 3.411.018.743.112 2.339.281 4.789.169 2.451.366 4.707.589 6.768.224 2.061.492 3.93.806 5.605.313 1.676.637 3.262.973 4.757.335 1.496.61 2.755.827 3.779.216 1.023.264 1.576.146 1.659-.119.083-.244.171-.373.265-.13.094-.271.149-.422.167s-.301.04-.449.065c-.147.026-.299.009-.454-.048-.155-.058-.297-.108-.427-.152-.13-.043-.257-.128-.384-.254-.126-.126-.228-.236-.308-.329-.079-.094-.151-.227-.216-.4s-.104-.321-.119-.444c-.014-.122-.018-.274-.011-.454.008-.18.042-.328.103-.443s.13-.25.205-.405c.076-.155.2-.355.373-.6s.339-.845.498-1.8c.158-.955.335-2.186.529-3.692.195-1.507.346-2.997.455-4.471.108-1.473.189-2.582.243-3.324s.129-2.009.227-3.8c.097-1.791.149-3.153.157-4.086.007-.934.001-2.536-.017-4.806s-.032-4.034-.043-5.292c-.011-1.257-.052-3.407-.124-6.448-.072-3.042-.114-5.236-.125-6.584-.01-1.348-.055-3.643-.135-6.887-.079-3.243-.124-5.479-.135-6.708s-.047-3.32-.108-6.275-.095-4.954-.103-5.995c-.007-1.041-.037-2.822-.092-5.341-.054-2.518-.072-4.14-.054-4.864.018-.725.029-2.245.033-4.563.003-2.317.02-4.344.048-6.081.029-1.737.175-3.191.438-4.362s.238-2.099-.075-2.784c-.314-.684-.445-1.082-.395-1.194.051-.112.121-.207.211-.287.09-.079.182-.155.276-.227.093-.072.201-.124.324-.156.122-.033.238-.056.346-.071.108-.014.227-.011.357.011.129.022.245.054.346.097.1.044.203.101.308.173.104.072.191.155.259.249.069.094.133.193.195.297.061.105.099.218.113.341.015.122.025.241.033.357.007.115-.011.232-.054.351-.044.119-.181.414-.411.886-.231.473-.472 1.087-.725 1.844-.252.756-.535 2.05-.848 3.881-.314 1.83-.512 2.83-.595 3-.083.169-.173.315-.27.438-.097.122-.222.243-.373.362s-.299.207-.443.265c-.144.057-.31.106-.498.146-.187.039-.358.048-.513.027-.155-.022-.324-.054-.508-.098-.184-.043-.341-.115-.47-.216-.13-.101-.265-.209-.406-.324-.14-.116-.245-.252-.313-.411-.069-.159-.137-.317-.206-.476-.068-.158-.099-.328-.092-.508.008-.18.02-.353.038-.519l.049-.254z"/><path d="m58.735 31.022c-2.169.493-3.331.762-3.486.805s-.314.059-.476.049c-.162-.011-.317-.047-.465-.108-.148-.062-.283-.145-.405-.249-.123-.105-.224-.225-.303-.362s-.137-.285-.173-.443c-.036-.159-.045-.318-.027-.476.018-.159.063-.312.135-.46.072-.147.162-.279.27-.394.109-.116.235-.209.379-.281s.295-.123.454-.152c.158-.028.317-.027.476.006.158.032.308.083.448.151.141.069.267.166.379.292.111.126.2.258.264.395.065.137.107.29.125.459s.009.328-.027.476c-.036.147-.098.295-.184.443-.087.148-.189.268-.308.362s-.256.175-.411.243c-.155.069-.31.101-.465.098-.155-.004-.313-.022-.476-.054-.162-.033-.304-.101-.427-.206-.122-.104-.237-.214-.346-.33-.108-.115-.181-.255-.221-.421s-.063-.323-.07-.47c-.008-.148.019-.305.081-.471.061-.165.135-.304.221-.416.087-.112.204-.22.352-.324.147-.105.214-.15.2-.135-.015.014.434-.314 1.346-.984.911-.67 1.443-1.024 1.594-1.06.152-.036.323-.066.514-.091.191-.026.362-.017.513.027.152.043.317.093.498.151.18.058.327.148.443.27.115.123.238.243.367.362.13.119.218.267.265.444.047.176.099.34.157.491.058.152.068.325.032.519-.036.195-.064.364-.086.508-.022.145-.092.301-.211.471-.119.169-.225.306-.319.411-.094.104-.229.21-.405.318z"/><path d="m209.751 57.395c1.791-9.262 2.829-14.883 3.114-16.865s.434-3.878.449-5.687c.014-1.809.025-3.113.032-3.913s-.11-1.671-.351-2.611c-.242-.941-.582-2.005-1.022-3.195-.44-1.189-.942-2.207-1.508-3.054s-1.155-1.465-1.768-1.854c-.612-.389-1.356-.641-2.232-.757-.876-.115-1.833-.021-2.87.282-1.038.302-2.168.843-3.39 1.621-1.221.779-2.524 1.836-3.908 3.173-1.383 1.337-2.859 3.022-4.427 5.054-1.567 2.033-2.602 3.388-3.102 4.065-.501.678-1.298 1.996-2.39 3.957-1.092 1.96-1.883 3.366-2.373 4.216s-1.281 2.524-2.373 5.022c-1.091 2.497-1.881 4.286-2.367 5.367-.487 1.081-1.213 3.152-2.179 6.211-.965 3.059-1.668 5.25-2.108 6.573-.439 1.323-.989 3.53-1.648 6.622-.66 3.092-1.139 5.31-1.438 6.654s-.696 3.447-1.189 6.308c-.494 2.861-.844 4.91-1.049 6.146s-.425 2.976-.659 5.221c-.235 2.245-.402 3.854-.503 4.827s-.146 2.123-.135 3.449.135 2.569.373 3.73c.238 1.16.629 1.978 1.173 2.454.544.475 1.452.405 2.724-.211s2.452-1.483 3.541-2.6c1.088-1.117 2.234-2.517 3.437-4.2 1.204-1.683 2.438-3.505 3.703-5.465s2.505-3.962 3.719-6.005c1.214-2.044 2.355-3.995 3.422-5.854 1.066-1.86 2.084-3.588 3.054-5.184.969-1.597 1.845-2.941 2.627-4.033.782-1.091 1.625-1.879 2.529-2.362.905-.483 1.818-.371 2.741.335.923.707 1.622 1.7 2.097 2.979.476 1.279.889 2.728 1.238 4.346.35 1.618.717 3.337 1.103 5.157.385 1.819.785 3.7 1.2 5.643.414 1.942.841 3.809 1.281 5.6s.892 3.36 1.357 4.708.904 2.389 1.319 3.124c.414.735.857 1.198 1.329 1.389s.75.321.833.39c.083.068.144.156.184.264.039.109.077.209.113.303s.049.2.038.319-.024.223-.038.314c-.014.09-.052.191-.113.302-.062.112-.121.2-.179.265-.057.065-.139.135-.243.211-.105.076-.198.126-.281.151-.083.026-.188.051-.314.076s-.232.025-.319 0c-.086-.025-.191-.05-.313-.076-.123-.025-.216-.074-.281-.146s-.171-.349-.319-.832-.173-.793-.076-.93c.098-.137.189-.247.276-.33.086-.082.207-.158.362-.227.155-.068.294-.1.416-.097.123.004.265.016.427.038s.292.079.389.173c.098.094.202.191.314.292s.182.225.211.373.054.288.075.421c.022.134 0 .274-.064.422-.065.148-.13.276-.195.384s-.166.207-.303.297-.266.153-.389.189c-.122.036-.263.054-.421.054-.159 0-.3-.028-.422-.086-.123-.058-.245-.13-.368-.216-.122-.087-.218-.195-.286-.325-.069-.129-.123-.261-.162-.394-.04-.134-.051-.276-.033-.427.018-.152.054-.289.108-.411.054-.123.134-.242.238-.357.105-.115.216-.203.335-.265.119-.061.254-.11.406-.146.151-.036.293-.037.427-.005.133.032.268.076.405.13s.252.138.346.254c.094.115.175.232.243.351.069.119.11.256.125.411.014.155-.053.05-.2-.314-.148-.364-.188-.501-.119-.41.068.09.129.178.184.264.054.087.091.188.113.303s.034.22.038.314c.003.093-.009.2-.038.319-.029.118-.067.219-.113.302-.047.083-.107.171-.179.265s-.153.164-.243.211-.184.097-.281.151-.202.08-.314.076c-.111-.004-.218-.004-.319 0-.1.004-.205-.022-.313-.076s-.202-.102-.281-.146c-.079-.043-.288.146-.627.568s-.788.344-1.346-.233c-.559-.576-1.124-1.356-1.697-2.34s-1.116-2.218-1.627-3.703c-.512-1.484-1.004-3.157-1.476-5.016s-.894-3.773-1.265-5.741c-.371-1.967-.706-3.886-1.005-5.756-.3-1.871-.573-3.564-.822-5.081s-.66-2.887-1.232-4.108c-.573-1.222-1.213-1.321-1.919-.298-.707 1.024-1.539 2.316-2.498 3.876-.958 1.56-1.969 3.277-3.032 5.151s-2.206 3.842-3.427 5.903c-1.222 2.061-2.445 4.106-3.67 6.135-1.226 2.029-2.465 3.933-3.719 5.714-1.254 1.78-2.489 3.353-3.703 4.719-1.214 1.365-2.514 2.423-3.897 3.173-1.384.749-2.748 1.079-4.092.989s-2.507-.645-3.487-1.665-1.603-2.305-1.87-3.854c-.267-1.55-.413-3.065-.438-4.546s.024-2.701.146-3.66c.123-.958.303-2.605.541-4.94.237-2.335.47-4.114.697-5.335.227-1.222.577-3.305 1.049-6.249s.866-5.081 1.183-6.411c.317-1.329.842-3.6 1.573-6.811.732-3.21 1.326-5.47 1.784-6.778s1.229-3.535 2.314-6.681c1.084-3.146 1.877-5.254 2.378-6.324.501-1.071 1.333-2.896 2.497-5.476s2-4.292 2.508-5.135c.509-.843 1.348-2.287 2.519-4.33 1.172-2.043 2.018-3.4 2.541-4.07.522-.67 1.609-2.065 3.259-4.184 1.651-2.119 3.247-3.903 4.79-5.351 1.542-1.449 3.025-2.629 4.448-3.541 1.424-.912 2.878-1.539 4.362-1.881 1.485-.342 2.818-.422 4-.238s2.287.62 3.314 1.308c1.027.689 1.876 1.555 2.546 2.6s1.263 2.254 1.778 3.627c.516 1.373.897 2.638 1.146 3.795s.38 2.15.395 2.978c.014.829-.002 2.202-.049 4.119s-.202 3.88-.465 5.887-.632 5.346-1.108 10.016-.724 7.101-.746 7.292c-.021.191-.086.349-.194.476-.109.126-.209.266-.303.421s-.225.267-.395.335c-.169.069-.324.144-.465.227-.14.083-.308.121-.502.114-.195-.007-.368-.011-.519-.011-.152 0-.317-.045-.498-.135-.18-.09-.331-.173-.454-.249-.122-.075-.248-.193-.378-.351-.13-.159-.225-.303-.286-.433-.062-.129-.119-.293-.173-.491-.054-.199-.071-.37-.049-.514l.005-.259z"/><path d="m179.784 77.151c-2.043-.493-3.316-.758-3.816-.794-.501-.036-.822-.072-.963-.108-.14-.036-.275-.089-.405-.157-.13-.069-.249-.153-.357-.254s-.203-.209-.286-.324c-.083-.116-.148-.246-.195-.39s-.081-.284-.103-.421c-.021-.137-.019-.283.006-.438s.061-.294.108-.416c.047-.123.115-.251.205-.384s.188-.242.292-.324c.105-.083.224-.164.357-.244.133-.079.27-.129.411-.151.14-.022.285-.038.432-.049.148-.011.723-.029 1.725-.054 1.001-.025 2.052-.072 3.151-.14 1.099-.069 2.38-.132 3.843-.189 1.463-.058 3.022-.193 4.676-.406s3.508-.4 5.562-.562 4.238-.4 6.551-.714c2.314-.313 4.287-.553 5.919-.718 1.633-.166 2.793-.314 3.481-.444.689-.129 1.105-.184 1.249-.162s.29.047.438.076.277.099.389.211c.112.111.213.218.303.319.09.1.151.236.184.405.032.169.046.315.043.438-.004.122-.036.266-.098.432-.061.166-.136.29-.227.373-.09.083-.203.179-.34.287s-.274.162-.411.162-.283.007-.438.021c-.155.015-.297-.025-.427-.118-.129-.094-.252-.177-.367-.249-.116-.072-.204-.191-.265-.357s-.106-.304-.135-.416-.029-.26 0-.443c.029-.184.075-.323.14-.417.065-.093.155-.21.27-.351.116-.14.238-.223.368-.249.13-.025.272-.063.427-.113.155-.051.301-.042.438.027.137.068.274.122.411.162s.248.135.335.287c.086.151.162.279.227.383.065.105.095.249.092.433-.004.184-.02.33-.049.438s-.092.241-.189.4c-.097.158-.198.265-.303.319-.104.054-.236.122-.394.205-.159.083-.229.106-.211.07s-.323.018-1.022.162c-.699.145-1.857.355-3.475.633-1.618.277-3.597.607-5.936.989-2.338.382-4.515.719-6.529 1.011-2.015.292-3.899.555-5.654.789s-3.361.375-4.817.422c-1.455.046-2.771.119-3.946.216-1.174.097-2.338.117-3.491.059-1.154-.057-1.808-.083-1.963-.075-.155.007-.29-.045-.405-.157s-.234-.197-.357-.254c-.122-.058-.218-.166-.286-.324-.069-.159-.134-.289-.195-.39s-.095-.241-.103-.421c-.007-.18-.005-.326.006-.438s.047-.251.108-.416c.061-.166.13-.294.205-.384.076-.09.173-.198.292-.324.119-.127.238-.208.357-.244s.256-.086.411-.151.299-.081.432-.049c.134.033.436.078.908.135.472.058 1.226.083 2.26.076s1.645-.007 1.832 0c.188.007.35.065.487.173s.281.202.432.281c.152.079.269.207.352.384.082.177.165.326.248.449.083.122.128.29.135.502.008.213.011.386.011.519 0 .134-.038.301-.113.503-.076.202-.154.357-.233.465s-.189.239-.33.394c-.14.155-.281.256-.421.303-.141.047-.301.11-.481.189-.18.08-.352.105-.514.076z"/><path d="m219.946 80.189c1.254.721 2.25 1.096 2.989 1.125.739.028 1.524-.154 2.357-.546.832-.393 1.513-.844 2.043-1.352s1.124-1.194 1.784-2.059c.659-.865 1.241-1.84 1.746-2.925.504-1.084.967-2.241 1.389-3.47s.712-2.391.87-3.486c.159-1.096.256-2.123.292-3.081.036-.959-.027-1.802-.189-2.53s-.456-1.442-.881-2.141-1.002-1.104-1.73-1.216-1.501.233-2.319 1.033-1.47 1.729-1.956 2.789c-.487 1.059-.9 2.331-1.238 3.816-.339 1.485-.586 3.14-.741 4.968-.155 1.827-.229 3.85-.221 6.07.007 2.22.164 4.423.47 6.611.306 2.187.681 4.23 1.124 6.129s.937 3.449 1.481 4.649 1.094 2.083 1.649 2.649c.555.565 1.229.769 2.021.61.793-.158 1.388-.542 1.784-1.151.397-.609.773-1.376 1.13-2.303.357-.926.627-1.783.811-2.573.184-.789.421-1.803.713-3.043.292-1.239.544-2.494.757-3.762s.386-2.49.519-3.665.274-2.252.422-3.232c.147-.98.349-1.842.605-2.584s.753-1.319 1.492-1.73 1.481-.486 2.227-.227c.746.26 1.391.647 1.935 1.162.544.516 1.074 1.072 1.589 1.671.516.598 1.06 1.183 1.633 1.756s1.191 1.042 1.854 1.406 1.463.582 2.4.654 1.49.104 1.659.097c.17-.007.325.016.465.07.141.054.279.125.416.211.137.087.245.2.325.341.079.14.147.281.205.421.058.141.076.296.054.465-.022.17-.054.323-.097.46s-.121.272-.233.405c-.111.133-.23.236-.356.308-.127.072-.271.132-.433.179-.162.046-.319.057-.47.032s-.303-.065-.454-.119c-.152-.054-.281-.14-.389-.259s-.206-.244-.292-.373c-.087-.13-.137-.278-.152-.444-.014-.165-.016-.32-.005-.464.011-.145.058-.294.141-.449.082-.155.176-.281.281-.378.104-.098.232-.186.383-.265.152-.08.303-.123.454-.13.152-.007.309-.002.471.016s.308.074.438.168c.129.093.25.194.362.302.111.109.193.242.243.4.05.159.086.31.108.454.022.145.005.301-.049.471-.054.169-.117.311-.189.427-.072.115-.178.23-.319.346-.14.115-.277.189-.41.221-.134.033-.209.06-.228.081-.018.022-.726.071-2.124.146-1.398.076-2.479-.012-3.243-.265-.764-.252-1.433-.619-2.005-1.102-.573-.483-1.287-1.216-2.141-2.2s-1.582-1.672-2.184-2.065-.984-.128-1.146.795c-.162.922-.306 1.978-.432 3.167s-.308 2.465-.546 3.827-.483 2.66-.735 3.892c-.253 1.232-.548 2.463-.887 3.692-.338 1.229-.636 2.229-.892 3s-.632 1.569-1.129 2.394c-.498.826-1.092 1.476-1.784 1.952s-1.49.775-2.395.897c-.904.123-1.769.042-2.594-.243-.826-.285-1.662-.838-2.508-1.66-.847-.821-1.579-1.976-2.195-3.464-.616-1.489-1.175-3.229-1.676-5.222s-.877-4.195-1.129-6.605c-.253-2.411-.373-4.755-.363-7.033.011-2.277.13-4.42.357-6.427s.555-3.841.984-5.503c.429-1.661.958-3.113 1.589-4.356.631-1.244 1.35-2.294 2.157-3.152.807-.857 1.69-1.429 2.649-1.713.958-.285 1.807-.337 2.545-.157.739.18 1.48.519 2.222 1.016.742.498 1.326 1.143 1.751 1.935.426.793.766 1.689 1.022 2.687s.366 2.018.33 3.059c-.036 1.042-.132 2.197-.287 3.465-.155 1.269-.443 2.589-.865 3.962-.421 1.373-.92 2.674-1.497 3.903-.576 1.229-1.279 2.391-2.108 3.487-.829 1.095-1.719 2.019-2.67 2.772-.952.754-1.959 1.339-3.022 1.757s-2.092.584-3.086.498c-.995-.087-1.86-.091-2.595-.011-.735.079-1.177.074-1.324-.016-.148-.091-.303-.168-.465-.233s-.292-.176-.389-.335c-.098-.159-.199-.299-.303-.422-.105-.122-.168-.283-.189-.481-.022-.198-.045-.369-.07-.513-.026-.144-.008-.316.054-.514.061-.198.12-.36.178-.486s.153-.271.286-.433c.134-.162.262-.277.384-.346.123-.068.274-.151.454-.248.18-.098.346-.141.498-.13.151.011.324.007.518-.011l.26.027z"/><path d="m261.616 67.324c-.612 4.123-.951 6.624-1.016 7.503s-.135 1.969-.211 3.27c-.075 1.301-.162 2.712-.259 4.233-.098 1.52-.166 2.866-.206 4.038-.039 1.171-.043 2.147-.01 2.929.032.782.248.698.648-.254.4-.951.822-1.901 1.265-2.848.443-.948.87-1.894 1.281-2.838s.802-1.871 1.173-2.779.766-1.809 1.184-2.702c.418-.894.789-1.672 1.113-2.335.325-.664.826-1.274 1.503-1.833.678-.558 1.492-.393 2.443.497.952.89 1.496 1.84 1.633 2.849s.263 2.137.378 3.384.197 2.526.243 3.838c.047 1.311.096 2.56.146 3.746.051 1.185.137 2.257.26 3.216.122.958.511 1.002 1.167.13.656-.873 1.249-1.858 1.779-2.957.529-1.099 1.038-2.211 1.524-3.335.487-1.125.96-2.231 1.422-3.319.461-1.089.951-2.125 1.47-3.108.519-.984.975-1.797 1.368-2.438.392-.642 1.102-1.024 2.129-1.146 1.027-.123 1.71.144 2.049.8s.593 1.44.762 2.351c.169.912.287 2.038.351 3.379.065 1.34.141 2.715.227 4.124.087 1.409.217 2.739.39 3.989.173 1.251.405 2.371.697 3.362s.661 1.78 1.108 2.368c.447.587 1.041.818 1.784.692.742-.126 1.193-.206 1.351-.238.159-.033.326-.029.503.011.176.039.333.097.47.173.137.075.269.18.395.313.126.134.218.276.275.427.058.152.098.314.119.487.022.173.009.34-.038.502-.046.163-.113.318-.2.465-.086.148-.198.272-.335.373s-.283.184-.437.249c-.155.065-.321.097-.498.097-.176 0-.342-.021-.497-.065-.155-.043-.306-.119-.454-.227s-.267-.227-.357-.356c-.09-.13-.164-.28-.222-.449-.057-.169-.081-.335-.07-.497.011-.163.042-.328.092-.498.051-.169.133-.315.249-.438.115-.122.241-.236.378-.34.137-.105.29-.171.46-.2.169-.029.337-.042.502-.038.166.004.33.043.492.119s.303.166.422.27c.119.105.225.236.319.395.093.158.151.315.173.47.021.155.027.324.016.508s-.061.344-.151.481c-.091.137-.188.274-.292.411-.105.137-.242.234-.411.292-.17.058-.245.096-.227.114s-.456.091-1.422.221-1.922.027-2.87-.308-1.766-.953-2.454-1.854-1.191-1.919-1.508-3.054-.58-2.414-.789-3.838c-.209-1.423-.328-2.847-.357-4.27-.029-1.424-.06-2.779-.092-4.065-.032-1.287-.065-2.528-.097-3.724-.033-1.197-.096-1.438-.19-.725-.093.714-.38 1.534-.859 2.46s-.95 1.908-1.411 2.946-.924 2.155-1.389 3.351-.941 2.342-1.427 3.438c-.487 1.095-.955 2.135-1.405 3.119-.451.984-.927 1.814-1.427 2.492-.501.677-1.193 1.135-2.076 1.373s-1.624.11-2.222-.384-1-1.092-1.205-1.795c-.206-.702-.389-1.596-.552-2.681-.162-1.084-.27-2.247-.324-3.486-.054-1.24-.103-2.485-.146-3.735-.043-1.251-.093-2.487-.151-3.708-.058-1.222-.036-2.368.065-3.438.101-1.071-.02-1.272-.362-.606-.343.667-.725 1.402-1.146 2.206-.422.803-.808 1.665-1.157 2.583-.35.919-.723 1.864-1.119 2.833s-.804 1.96-1.222 2.973c-.418 1.012-.81 1.901-1.178 2.665s-.768 1.484-1.2 2.162c-.432.677-1.211 1.036-2.335 1.076-1.125.039-1.878-.345-2.26-1.152s-.603-1.666-.665-2.578c-.061-.912-.068-1.984-.021-3.216.047-1.233.119-2.606.216-4.119.097-1.514.191-2.926.281-4.238s.166-2.409.227-3.292.097-2.366.108-4.449.029-3.209.054-3.378c.026-.169.08-.333.163-.492.082-.159.174-.304.275-.438.101-.133.225-.254.373-.362s.296-.195.443-.259c.148-.065.314-.116.498-.152.183-.036.356-.043.519-.021.162.021.331.055.508.102.176.047.331.119.465.217.133.097.268.205.405.324s.241.258.314.416c.072.159.14.315.205.47s.094.326.086.514z"/><path d="m298.476 76.395c1.499 2.295 2.684 3.223 3.556 2.783.873-.439 1.691-1.162 2.454-2.167.764-1.006 1.503-2.072 2.217-3.2.713-1.128 1.324-2.197 1.832-3.206s.847-1.899 1.016-2.67c.17-.771-.174-.823-1.032-.157-.858.667-1.546 1.617-2.065 2.849s-.975 2.703-1.368 4.411c-.392 1.708-.672 3.593-.837 5.654-.166 2.061-.193 4.14-.081 6.238.111 2.097.43 3.884.956 5.362.526 1.477 1.166 2.423 1.919 2.838.753.414 1.746.627 2.979.638 1.232.01 2.6-.253 4.102-.79 1.503-.537 3.144-1.331 4.925-2.383 1.78-1.053 3.63-2.271 5.551-3.654 1.921-1.384 3.177-2.294 3.768-2.73s1.67-1.117 3.237-2.043c1.568-.927 2.672-1.582 3.314-1.968.641-.386 1.825-.915 3.551-1.589s2.939-1.146 3.638-1.416c.699-.271 1.926-.501 3.681-.692s3.872-.208 6.352-.049c2.479.159 4.922.436 7.329.832 2.407.397 3.973.658 4.698.784.724.126 1.931.294 3.621.503s3.186.371 4.487.486c1.301.116 2.048.199 2.243.249.195.051.376.132.546.243.169.112.317.247.443.406.126.158.224.333.292.524s.105.389.108.595c.004.205-.025.403-.086.594-.062.191-.152.37-.271.535-.119.166-.261.307-.427.422-.165.115-.346.202-.54.259-.195.058-.393.083-.595.076s-.398-.047-.589-.119-.364-.171-.519-.297-.288-.278-.4-.454c-.112-.177-.189-.36-.232-.551-.044-.191-.058-.391-.044-.6.015-.209.065-.402.152-.579.086-.176.194-.346.324-.508s.288-.285.476-.368c.187-.082.375-.151.562-.205s.387-.058.6-.011.404.108.573.184.331.193.486.351c.155.159.271.323.346.492.076.17.134.362.173.579.04.216.033.416-.021.6-.054.183-.126.371-.217.562-.09.191-.216.346-.378.465s-.331.225-.508.319c-.177.093-.371.14-.584.14-.212 0-.313.007-.303.022.011.014-.637-.045-1.945-.179-1.309-.133-2.869-.245-4.682-.335-1.812-.09-3.081-.209-3.805-.356-.724-.148-2.267-.411-4.627-.79-2.36-.378-4.613-.657-6.757-.838-2.144-.18-3.922-.189-5.335-.027-1.412.163-2.459.366-3.14.611s-1.772.672-3.271 1.281-2.567 1.099-3.205 1.471c-.638.371-1.663 1.016-3.076 1.935-1.412.919-2.414 1.591-3.005 2.016s-1.892 1.368-3.903 2.827-4.018 2.751-6.021 3.876c-2.004 1.124-3.988 2.005-5.952 2.643s-3.868.894-5.713.767c-1.845-.126-3.517-.76-5.017-1.902-1.499-1.143-2.535-2.694-3.108-4.654-.573-1.961-.89-4.08-.951-6.357-.061-2.278.074-4.548.405-6.811.332-2.263.8-4.274 1.406-6.032.605-1.759 1.221-3.334 1.848-4.725s1.316-2.515 2.065-3.373c.75-.857 1.548-1.502 2.395-1.935.847-.432 1.576-.436 2.189-.011.613.426 1.005 1.006 1.178 1.741s.172 1.625-.005 2.67-.497 2.125-.962 3.238c-.465 1.114-1.015 2.301-1.649 3.562-.634 1.262-1.335 2.498-2.102 3.708-.768 1.211-1.714 2.281-2.838 3.211-1.125.93-2.117 1.434-2.979 1.514-.861.079-1.668-.166-2.421-.735-.753-.57-1.588-1.384-2.503-2.444-.915-1.059-1.414-1.646-1.497-1.762-.083-.115-.152-.274-.206-.475-.054-.202-.083-.372-.086-.509-.004-.137.009-.31.038-.519.028-.209.083-.372.162-.491s.171-.265.275-.438c.105-.173.228-.294.368-.362.141-.069.29-.155.449-.26.158-.104.324-.155.497-.151.173.003.344-.004.514-.022.169-.018.338.016.508.103.169.086.326.158.47.216s.279.166.405.324l.179.19z"/><path d="m5.611 38c5.376-.231 8.627-.434 9.751-.611 1.124-.176 2.611-.47 4.46-.881 1.848-.411 3.173-.697 3.973-.859.8-.163 2.169-.453 4.108-.871 1.938-.418 3.322-.708 4.151-.87s2.296-.461 4.4-.897c2.105-.436 3.607-.746 4.508-.93s2.523-.526 4.865-1.027 4.016-.854 5.022-1.059c1.005-.206 2.758-.545 5.259-1.017s4.285-.801 5.351-.989c1.067-.187 2.912-.513 5.536-.978 2.623-.465 4.497-.789 5.621-.973 1.125-.184 3.065-.483 5.822-.897 2.757-.415 4.724-.701 5.903-.86 1.178-.158 3.126-.44 5.843-.843 2.717-.404 4.657-.683 5.821-.838s3.054-.404 5.671-.746c2.616-.342 4.484-.58 5.605-.713 1.121-.134 2.969-.391 5.546-.773s4.422-.649 5.535-.8c1.114-.152 2.885-.393 5.314-.725 2.429-.331 4.169-.564 5.221-.697 1.053-.133 2.721-.362 5.006-.687 2.284-.324 3.926-.549 4.924-.675s2.575-.352 4.73-.676 3.704-.549 4.648-.676c.945-.126 2.386-.311 4.325-.556 1.938-.245 3.329-.42 4.173-.525.843-.104 2.111-.259 3.805-.465 1.694-.205 3.175-.378 4.443-.518 1.269-.141 1.984-.213 2.146-.217.162-.003.328.033.498.108.169.076.317.161.443.255.126.093.238.223.335.389.097.165.162.322.195.47.032.148.043.317.032.508s-.056.357-.135.497c-.079.141-.173.283-.281.427-.108.145-.242.249-.4.314-.159.065-.321.121-.487.167-.165.047-.335.049-.508.006s-.335-.096-.486-.157c-.152-.061-.289-.164-.411-.308-.123-.144-.22-.285-.292-.422s-.119-.299-.141-.486c-.021-.187-.014-.359.022-.514s.097-.313.184-.475c.086-.162.196-.294.33-.395.133-.101.277-.189.432-.265.155-.075.321-.113.497-.113.177 0 .346.016.508.048.163.033.318.103.465.211.148.108.274.224.379.346.104.123.185.272.243.449.058.176.086.344.086.503 0 .158-.025.326-.075.502-.051.177-.13.328-.238.454s-.231.245-.368.357-.29.186-.459.222c-.17.036-.252.059-.249.07.004.011-.623.086-1.881.227-1.258.14-2.73.319-4.416.535-1.687.216-2.946.378-3.778.487-.833.108-2.215.309-4.146.605-1.932.295-3.364.508-4.298.638-.933.13-2.486.355-4.659.675-2.173.321-3.755.548-4.746.682-.991.133-2.634.36-4.93.681-2.295.32-3.967.547-5.016.681-1.049.133-2.782.365-5.2.697s-4.186.573-5.303.724c-1.117.152-2.973.413-5.567.784-2.595.371-4.454.622-5.579.751-1.124.13-2.983.361-5.578.692-2.595.332-4.479.573-5.654.725-1.175.151-3.115.414-5.822.789-2.706.375-4.656.641-5.848.8-1.193.158-3.148.429-5.865.811s-4.647.665-5.789.848c-1.143.184-3.013.492-5.611.925-2.598.432-4.44.742-5.525.929-1.084.188-2.857.501-5.319.941-2.461.44-4.203.762-5.227.968-1.023.205-2.7.553-5.032 1.043s-3.957.825-4.876 1.005-2.427.483-4.524.908-3.569.719-4.416.881c-.847.163-2.234.417-4.162.763-1.928.345-3.299.6-4.114.762-.814.162-2.164.423-4.049.783-1.884.361-3.396.629-4.535.806-1.138.176-2.998.621-5.578 1.335s-3.964 1.074-4.151 1.081c-.188.007-.361-.007-.519-.043-.159-.036-.321-.092-.487-.168-.166-.075-.311-.169-.438-.281-.126-.112-.245-.236-.356-.373-.112-.137-.197-.286-.254-.448-.058-.163-.105-.328-.141-.498-.036-.169-.043-.342-.022-.519.022-.176.058-.346.109-.508.05-.162.126-.317.227-.465.1-.147.21-.281.329-.4s.256-.221.411-.308c.155-.086.315-.153.481-.2l.249-.07z"/></g></svg>